<svg width="99" height="99" viewBox="0 0 99 99" fill="none" xmlns="http://www.w3.org/2000/svg">
<path d="M65.2325 41.5412C68.4128 38.1818 69.2083 33.5565 67.0061 31.2302C64.8038 28.904 60.4251 29.7444 57.2448 33.1038C54.2366 36.2813 53.3635 40.5904 55.1415 43.0162L50.9905 47.401L50.1503 46.5135L30.3116 67.4691L32.6984 69.9903L52.5372 49.0346L51.6972 48.1473L55.8483 43.7625C58.1449 45.6407 62.2243 44.7187 65.2325 41.5412ZM51.0646 49.0975L32.758 68.4346L31.7846 67.4064L50.0912 48.0693L51.0646 49.0975ZM56.2371 42.6055C54.4246 40.691 55.1939 36.7634 57.9517 33.8503C60.7095 30.9372 64.4278 30.1246 66.2403 32.0391C68.0529 33.9537 67.2837 37.8815 64.5259 40.7946C61.768 43.7077 58.0496 44.5201 56.2371 42.6055Z" fill="white"/>
<path d="M38.7362 33.1005C35.5603 29.7366 31.1875 28.8951 28.9883 31.2245C26.7891 33.554 27.5836 38.1856 30.7595 41.5495C33.7635 44.7314 37.8373 45.6549 40.1306 43.7742L44.2759 48.165L43.437 49.0536L63.2482 70.038L65.6317 67.5134L45.8204 46.5289L44.9815 47.4174L40.8362 43.0266C42.6118 40.5974 41.7402 36.2824 38.7362 33.1005ZM45.8798 48.0866L64.161 67.4503L63.189 68.4799L44.9077 49.1162L45.8798 48.0866ZM39.7424 42.6154C37.9324 44.5326 34.2193 43.7189 31.4652 40.8018C28.7112 37.8847 27.943 33.9517 29.753 32.0345C31.563 30.1173 35.2763 30.9309 38.0303 33.848C40.7843 36.7651 41.5524 40.6982 39.7424 42.6154Z" fill="white"/>
<path d="M48.8918 8.21979C48.6492 8.21979 48.3762 8.20676 48.0729 8.18071C47.9516 8.17202 47.8043 8.16334 47.631 8.15465C47.4578 8.14597 47.2628 8.14163 47.0462 8.14163L46.0844 8.15465C45.9284 8.16334 45.7075 8.16768 45.4215 8.16768C45.4042 8.16768 45.3955 8.14163 45.3955 8.08952C45.3955 8.03741 45.4042 8.01136 45.4215 8.01136C45.6901 8.01136 45.8851 7.98965 46.0064 7.94623C46.1277 7.90281 46.21 7.8203 46.2533 7.69872C46.3053 7.56846 46.327 7.37306 46.3183 7.11253V1.08121C46.301 0.820676 46.2663 0.62962 46.2144 0.508038C46.171 0.386456 46.0887 0.303954 45.9674 0.260532C45.8461 0.208426 45.6641 0.182372 45.4215 0.182372C45.4042 0.182372 45.3955 0.156319 45.3955 0.104213C45.3955 0.0521068 45.4042 0.0260536 45.4215 0.0260536L46.0844 0.0390801C46.4656 0.0564487 46.7776 0.065133 47.0202 0.065133C47.3061 0.065133 47.5921 0.0521065 47.878 0.0260536C48.2419 0.00868455 48.5105 0 48.6838 0C49.5936 0 50.3994 0.169346 51.1013 0.508038C51.8031 0.838045 52.349 1.30266 52.7389 1.90188C53.1288 2.50111 53.3238 3.18718 53.3238 3.96009C53.3238 4.79379 53.1158 5.53631 52.6999 6.18764C52.2927 6.83028 51.7511 7.32964 51.0753 7.6857C50.3994 8.04176 49.6716 8.21979 48.8918 8.21979ZM48.7748 7.95925C49.3813 7.95925 49.9099 7.81596 50.3604 7.52938C50.811 7.23411 51.1576 6.80857 51.4002 6.25277C51.6515 5.69697 51.7771 5.02827 51.7771 4.24667C51.7771 3.57797 51.6688 2.94401 51.4522 2.34479C51.2356 1.73688 50.889 1.23753 50.4124 0.846729C49.9445 0.455931 49.3467 0.260532 48.6188 0.260532C48.2722 0.260532 48.0383 0.325665 47.917 0.455931C47.7957 0.577513 47.735 0.794623 47.735 1.10726V6.96923C47.7437 7.32529 47.8173 7.58148 47.956 7.7378C48.1033 7.88544 48.3762 7.95925 48.7748 7.95925Z" fill="#DCCA87"/>
<path d="M64.4813 8.72073C64.5028 8.70896 64.526 8.70674 64.551 8.71408C64.5759 8.72142 64.5984 8.73709 64.6185 8.7611C64.641 8.77677 64.6468 8.78755 64.6361 8.79344C64.3943 9.31059 64.1794 9.88997 63.9914 10.5316C63.9719 10.5982 63.9448 10.6446 63.9101 10.6706C63.8778 10.6882 63.8242 10.686 63.7494 10.664L58.0628 8.99049C58.0295 8.9807 58.0202 8.95081 58.0349 8.90082C58.0495 8.85082 58.0693 8.82949 58.0943 8.83683C58.3437 8.91023 58.5285 8.94201 58.6488 8.93215C58.7774 8.92474 58.8754 8.8676 58.9429 8.76073C59.0186 8.65631 59.0943 8.47494 59.17 8.21663L60.8654 2.42962C60.9386 2.17964 60.9715 1.99021 60.9641 1.86132C60.9567 1.73243 60.9009 1.63002 60.7968 1.55411C60.695 1.46986 60.5277 1.39348 60.295 1.32497C60.27 1.31763 60.2607 1.28774 60.267 1.2353C60.2817 1.1853 60.2973 1.16275 60.314 1.16765L65.6888 2.74942C65.7553 2.769 65.7776 2.81628 65.7556 2.89127L65.2972 4.54847C65.2899 4.57347 65.2613 4.57863 65.2114 4.56395C65.1698 4.55172 65.1473 4.53605 65.1439 4.51693C65.1393 4.00871 64.989 3.56623 64.693 3.18949C64.4077 2.80686 64.0115 2.54092 63.5044 2.39167L63.2674 2.32194C63.0097 2.24609 62.8165 2.21187 62.6879 2.21928C62.5701 2.22081 62.4799 2.26667 62.4174 2.35688C62.3548 2.44708 62.2852 2.60762 62.2085 2.83848L61.4615 5.38827L63.0204 5.84702C63.4444 5.9718 63.7781 5.98855 64.0216 5.89729C64.2651 5.80602 64.4356 5.59374 64.5333 5.26043C64.543 5.2271 64.577 5.219 64.6352 5.23612C64.6934 5.25325 64.7164 5.28265 64.7042 5.32431L64.4903 6.00808C64.4527 6.10563 64.4071 6.24606 64.3534 6.42937C64.2752 6.69602 64.2208 6.89723 64.1901 7.03299L64.0048 7.71161C63.9926 7.75327 63.9616 7.76676 63.9117 7.75208C63.8867 7.74474 63.863 7.73323 63.8405 7.71756C63.8288 7.696 63.8253 7.67689 63.8302 7.66023C63.9352 7.30192 63.9023 6.99808 63.7315 6.74871C63.5715 6.49344 63.292 6.30709 62.8929 6.18965L61.359 5.73824L60.5315 8.563C60.4338 8.8963 60.4202 9.12763 60.4907 9.25698C60.5695 9.38878 60.7752 9.50361 61.1077 9.60148L61.4569 9.70424C61.9973 9.86327 62.5371 9.8547 63.0764 9.67851C63.6181 9.49399 64.0864 9.17473 64.4813 8.72073Z" fill="#DCCA87"/>
<path d="M69.3829 13.2787C69.3683 13.2693 69.3751 13.2427 69.4032 13.1989C69.4313 13.155 69.4526 13.1378 69.4672 13.1472C69.6932 13.2927 69.8689 13.3801 69.9944 13.4093C70.1198 13.4385 70.2299 13.4114 70.3247 13.3279C70.4267 13.2491 70.5503 13.0964 70.6956 12.87L73.949 7.79609C74.0895 7.57691 74.1743 7.40445 74.2035 7.27869C74.2326 7.15293 74.2079 7.03893 74.1292 6.93666C74.0553 6.8271 73.9163 6.70658 73.7122 6.57512C73.6903 6.56103 73.6934 6.53207 73.7215 6.48824C73.7496 6.4444 73.7746 6.42953 73.7965 6.44361L74.3143 6.79262C74.6257 7.01382 74.8797 7.1878 75.0765 7.31457C75.2734 7.44134 75.5441 7.60541 75.8888 7.80677L76.4534 8.15499C76.468 8.16438 76.4612 8.191 76.4331 8.23483C76.405 8.27867 76.3837 8.29589 76.3691 8.2865C76.1431 8.14095 75.9651 8.05723 75.8349 8.03533C75.7167 8.01082 75.6066 8.03797 75.5046 8.11677C75.4099 8.20027 75.2862 8.35292 75.1337 8.5747L71.9155 13.5938C71.7328 13.8787 71.6511 14.0945 71.6703 14.2411C71.6943 14.3804 71.8193 14.5228 72.0452 14.6684L72.3514 14.8656C72.9418 15.2459 73.5182 15.4313 74.0804 15.4218C74.6547 15.4098 75.2424 15.1999 75.8437 14.7923C75.8676 14.7871 75.8905 14.7915 75.9124 14.8056C75.9343 14.8197 75.9514 14.8411 75.9639 14.8698C75.9811 14.8912 75.985 14.9092 75.9757 14.9238C75.5332 15.4853 75.1457 16.0254 74.8131 16.5441C74.7428 16.6537 74.653 16.6733 74.5437 16.6029L69.3829 13.2787Z" fill="#DCCA87"/>
<path d="M79.6471 21.4387C79.6358 21.4256 79.6497 21.4019 79.689 21.3678C79.7283 21.3337 79.7536 21.3232 79.765 21.3363C79.9409 21.5398 80.0821 21.67 80.1886 21.7268C80.3008 21.7903 80.4169 21.7986 80.5369 21.7518C80.657 21.705 80.8185 21.5935 81.0215 21.4172L85.5694 17.4675C85.7593 17.3026 85.883 17.1606 85.9407 17.0416C86.0105 16.9235 86.0221 16.8043 85.9754 16.6839C85.9353 16.5579 85.8329 16.3998 85.6684 16.2094C85.657 16.1963 85.6681 16.1694 85.7018 16.1287C85.741 16.0946 85.7692 16.0874 85.7862 16.1071L86.202 16.6078C86.4385 16.908 86.6334 17.1467 86.7866 17.3239C86.9569 17.5208 87.179 17.7645 87.4531 18.055L87.88 18.5289C87.8914 18.542 87.8774 18.5656 87.8381 18.5998C87.7988 18.6339 87.7735 18.6444 87.7621 18.6313C87.5919 18.4344 87.4474 18.307 87.3287 18.2493C87.21 18.1915 87.0906 18.186 86.9705 18.2328C86.8562 18.2862 86.6946 18.3977 86.486 18.5675L81.9578 22.5001C81.7613 22.6707 81.6314 22.8122 81.5681 22.9247C81.5105 23.0437 81.5017 23.1662 81.5419 23.2922C81.5886 23.4125 81.6942 23.5678 81.8588 23.7582C81.8701 23.7713 81.8561 23.7949 81.8169 23.829C81.7776 23.8632 81.7522 23.8737 81.7409 23.8605C81.565 23.6571 81.4264 23.4901 81.3252 23.3598L80.7136 22.6325L80.0995 21.9421C79.9852 21.8231 79.8344 21.6553 79.6471 21.4387Z" fill="#DCCA87"/>
<path d="M87.0106 33.0447C86.6111 32.1679 86.4332 31.328 86.4769 30.5251C86.5243 29.7301 86.7662 29.0275 87.2025 28.4172C87.6467 27.8033 88.2393 27.3268 88.9802 26.9877C89.6974 26.6594 90.4262 26.555 91.1664 26.6744C91.9146 26.7903 92.5957 27.1039 93.2097 27.6152C93.8316 28.123 94.3261 28.7797 94.6933 29.5855C94.8624 29.9568 94.9997 30.3522 95.1052 30.7717C95.2185 31.1877 95.2783 31.5279 95.2845 31.7924C95.2817 31.87 95.2682 31.9239 95.2439 31.9542C95.2196 31.9844 95.1658 32.0233 95.0827 32.0709L93.5772 32.8746C93.5456 32.889 93.5169 32.8783 93.4911 32.8424C93.4652 32.8065 93.4605 32.7752 93.4769 32.7486C93.9499 32.1979 94.2494 31.6217 94.3753 31.0199C94.509 30.4145 94.4409 29.8156 94.1709 29.2231C93.8218 28.4568 93.2781 27.9849 92.5399 27.8072C91.8096 27.626 90.9794 27.7482 90.0493 28.1739C89.2375 28.5455 88.5851 29.016 88.092 29.5854C87.5989 30.1547 87.2945 30.7619 87.1787 31.4068C87.0666 32.0596 87.1527 32.698 87.4371 33.3221C87.5666 33.6065 87.705 33.8057 87.8522 33.9197C88.0073 34.0301 88.1921 34.0697 88.4064 34.0384C88.6323 34.0114 88.9304 33.9131 89.3008 33.7436C89.687 33.5668 89.9506 33.4032 90.0916 33.2527C90.2327 33.1022 90.2875 32.9196 90.2563 32.7047C90.2251 32.4899 90.1141 32.1731 89.9234 31.7545C89.9018 31.7071 89.9225 31.6689 89.9855 31.6401C90.0092 31.6292 90.0307 31.6242 90.05 31.6249C90.0809 31.6298 90.0999 31.6402 90.1071 31.656C90.3665 32.3297 90.5951 32.8838 90.7931 33.3183C90.9803 33.7291 91.1865 34.1502 91.4117 34.5818C91.4261 34.6134 91.4075 34.6458 91.3559 34.6789C91.3043 34.7121 91.2714 34.7129 91.257 34.6813C91.2072 34.5513 91.1397 34.4867 91.0544 34.4876C90.9691 34.4884 90.8003 34.5466 90.5481 34.662L89.7441 35.03C89.3895 35.1924 89.1466 35.3178 89.0155 35.4065C88.8844 35.4951 88.7913 35.5521 88.7361 35.5773C88.6888 35.599 88.6537 35.6055 88.6308 35.5969C88.6114 35.5962 88.583 35.5758 88.5457 35.5356C87.8642 34.6255 87.3526 33.7952 87.0106 33.0447Z" fill="#DCCA87"/>
<path d="M90.9607 48.0425C90.9632 48.0597 90.9387 48.072 90.8873 48.0794C90.8358 48.0868 90.8088 48.0819 90.8064 48.0648C90.7718 47.8241 90.7478 47.6257 90.7341 47.4698L90.6083 46.5009L90.4622 45.5744C90.4302 45.4123 90.3939 45.1894 90.3532 44.9057C90.3507 44.8885 90.3746 44.8719 90.4248 44.8559C90.4763 44.8485 90.5039 44.8577 90.5076 44.8835C90.5458 45.15 90.5944 45.336 90.6533 45.4415C90.7134 45.5557 90.806 45.6213 90.931 45.6384C91.056 45.6555 91.2514 45.6449 91.5173 45.6066L94.4762 45.1802L93.9435 41.4667L90.9846 41.8931C90.7273 41.9302 90.5417 41.9788 90.4278 42.0391C90.3151 42.108 90.2417 42.2063 90.2075 42.3341C90.1819 42.4606 90.1876 42.6528 90.2246 42.9107C90.2283 42.9365 90.2044 42.9531 90.1529 42.9605C90.1015 42.9679 90.0739 42.9587 90.0702 42.9329C90.0295 42.6493 90.0023 42.4295 89.9887 42.2735L89.8647 41.3175L89.7242 40.4296C89.6922 40.2676 89.6571 40.0533 89.6189 39.7868C89.6152 39.761 89.639 39.7444 89.6905 39.737C89.742 39.7296 89.7695 39.7388 89.7732 39.7646C89.8102 40.0224 89.8582 40.2042 89.9171 40.3097C89.9772 40.4239 90.0698 40.4895 90.1948 40.5066C90.3211 40.5323 90.5171 40.526 90.783 40.4876L96.7394 39.6293C97.1009 39.586 97.3293 39.5004 97.4248 39.3726C97.5288 39.2436 97.5556 39.0028 97.505 38.6504C97.5013 38.6246 97.5252 38.608 97.5767 38.6006C97.6281 38.5932 97.6557 38.6023 97.6594 38.6281L97.7353 39.2489C97.7724 39.6296 97.8076 39.936 97.8409 40.1681C97.8742 40.4002 97.9278 40.7127 98.0017 41.1056L98.1089 41.7614C98.1113 41.7786 98.0868 41.7909 98.0354 41.7983C97.9839 41.8057 97.957 41.8008 97.9545 41.7836C97.9175 41.5257 97.8646 41.3403 97.7959 41.2274C97.7272 41.1145 97.6254 41.0458 97.4906 41.0214C97.3656 41.0043 97.1738 41.01 96.9153 41.0385L94.3037 41.4148L94.8346 45.1154L97.4462 44.739C97.815 44.6859 98.0514 44.5948 98.1554 44.4657C98.2607 44.3453 98.2881 44.1088 98.2375 43.7564C98.235 43.7392 98.2589 43.7226 98.3091 43.7066C98.3606 43.6992 98.3882 43.7084 98.3919 43.7342L98.4696 44.3678C98.5067 44.7485 98.5426 45.0592 98.5771 45.2999C98.6104 45.532 98.6627 45.8359 98.7341 46.2117L98.8413 46.8674C98.845 46.8932 98.8212 46.9098 98.7697 46.9172C98.7182 46.9246 98.6907 46.9154 98.687 46.8896C98.65 46.6318 98.5971 46.4464 98.5284 46.3334C98.4695 46.2279 98.3769 46.1622 98.2507 46.1366C98.1244 46.1109 97.9314 46.108 97.6717 46.1279L91.7152 46.9862C91.4665 47.0221 91.2815 47.075 91.1603 47.1452C91.0488 47.2226 90.9766 47.3295 90.9437 47.4659C90.9193 47.601 90.925 47.7932 90.9607 48.0425Z" fill="#DCCA87"/>
<path d="M90.4344 53.5422C90.4381 53.5165 90.4657 53.5073 90.5172 53.5147C90.5686 53.5221 90.5931 53.5344 90.5907 53.5516C90.5389 53.9126 90.5227 54.1779 90.5421 54.3474C90.5604 54.5255 90.6252 54.6533 90.7366 54.7308C90.8567 54.8095 91.0453 54.8674 91.3026 54.9044L97.259 55.7628C97.558 55.8146 97.7608 55.8044 97.8675 55.732C97.9827 55.6609 98.0576 55.505 98.0921 55.2643L98.1162 55.0967C98.1581 54.8044 98.1051 54.5029 97.9571 54.192C97.8177 53.8824 97.6078 53.6065 97.3274 53.3643C97.0555 53.1233 96.7426 52.9554 96.3886 52.8605C96.3714 52.858 96.3659 52.8353 96.3721 52.7923C96.3758 52.7665 96.3838 52.7413 96.396 52.7168C96.4157 52.7021 96.4291 52.6996 96.4365 52.7095C96.7562 52.7994 97.6003 52.9868 98.9688 53.2718C98.9946 53.2755 99.0044 53.2988 98.9982 53.3418C98.9945 53.3676 98.9871 53.3885 98.9761 53.4044C98.9638 53.429 98.9491 53.44 98.9319 53.4376C98.7518 53.4116 98.634 53.592 98.5785 53.9789C98.4529 54.6714 98.3149 55.5421 98.1645 56.5908C98.0966 57.0636 98.0294 57.5935 97.9627 58.1805L97.8461 59.0849C97.8054 59.3686 97.7972 59.5779 97.8216 59.7131C97.846 59.8482 97.92 59.9422 98.0438 59.9951C98.067 60.016 98.0713 60.0474 98.0565 60.0891C98.0491 60.1407 98.0289 60.1597 97.9958 60.1462C97.6222 60.066 97.1499 59.9716 96.5789 59.863C96.0166 59.7556 95.6361 59.6921 95.4377 59.6722C95.4119 59.6685 95.4028 59.6409 95.4102 59.5893C95.42 59.5205 95.4421 59.4886 95.4764 59.4936C95.8281 59.5442 96.1657 59.5095 96.4893 59.3895C96.8117 59.278 97.0833 59.0934 97.3041 58.8357C97.5236 58.5866 97.6568 58.2987 97.7037 57.972L97.7277 57.8044C97.7524 57.6325 97.7488 57.5048 97.7171 57.4212C97.684 57.3463 97.6173 57.2928 97.5169 57.2608C97.425 57.23 97.2639 57.1936 97.0335 57.1516L91.101 56.3099C90.8351 56.2716 90.6384 56.2696 90.511 56.3038C90.3823 56.3467 90.2848 56.4467 90.2185 56.6039C90.1521 56.761 90.0925 57.0244 90.0394 57.394C90.0357 57.4198 90.0082 57.429 89.9567 57.4216C89.9052 57.4142 89.8814 57.3976 89.8851 57.3718C89.9307 57.0537 89.9707 56.8051 90.0052 56.6258L90.1864 55.4543L90.3326 54.3435C90.3512 54.1532 90.3851 53.8861 90.4344 53.5422Z" fill="#DCCA87"/>
<path d="M81.376 75.5896C81.3874 75.5765 81.4127 75.587 81.452 75.6211C81.4913 75.6553 81.5053 75.6789 81.4939 75.692C81.318 75.8955 81.2096 76.0541 81.1685 76.1678C81.1218 76.2882 81.1301 76.4045 81.1934 76.517C81.2567 76.6294 81.3899 76.7738 81.5929 76.9501L86.1408 80.8997C86.3307 81.0647 86.4885 81.1672 86.6142 81.2075C86.7408 81.26 86.8602 81.2545 86.9724 81.191C87.0911 81.1333 87.2327 81.0092 87.3973 80.8189C87.4086 80.8058 87.4368 80.813 87.4818 80.8406C87.521 80.8747 87.5322 80.9016 87.5152 80.9213L87.0798 81.405C86.817 81.6824 86.609 81.9097 86.4558 82.0869C86.2856 82.2838 86.0765 82.5389 85.8286 82.8522L85.4214 83.3431C85.41 83.3562 85.3847 83.3457 85.3454 83.3116C85.3061 83.2775 85.2922 83.2539 85.3035 83.2407C85.4737 83.0438 85.5789 82.8824 85.6191 82.7564C85.6592 82.6304 85.6476 82.5112 85.5843 82.3987C85.5153 82.2928 85.3822 82.1485 85.1849 81.9656L80.6567 78.033C80.4602 77.8624 80.302 77.7537 80.1819 77.7069C80.0562 77.6666 79.934 77.6754 79.8152 77.7332C79.703 77.7966 79.5647 77.9235 79.4001 78.1138C79.3888 78.127 79.3635 78.1165 79.3242 78.0823C79.2849 78.0482 79.2709 78.0246 79.2823 78.0115C79.4582 77.808 79.6033 77.6468 79.7176 77.5278L80.3488 76.8176L80.9433 76.1101C81.0445 75.9797 81.1888 75.8062 81.376 75.5896Z" fill="#DCCA87"/>
<path d="M72.081 93.6882C72.0592 93.7023 72.0342 93.6874 72.0061 93.6436C71.978 93.5998 71.9748 93.5708 71.9967 93.5567C72.2956 93.3642 72.4742 93.1047 72.5325 92.778C72.5836 92.4561 72.5003 92.1174 72.2828 91.7621L68.6679 86.1003C68.6465 86.0831 68.6531 86.0531 68.6874 86.0103C68.7098 85.9649 68.7465 85.9258 68.7975 85.8929C68.8704 85.846 68.9319 85.8374 68.9818 85.8671L77.2592 88.6805L74.4524 84.279C74.2349 83.9237 73.9694 83.7024 73.656 83.6152C73.3426 83.528 73.0328 83.583 72.7267 83.7802C72.6975 83.799 72.6689 83.7865 72.6408 83.7426C72.6127 83.6988 72.6132 83.6675 72.6423 83.6487C72.8464 83.5172 73.0055 83.42 73.1195 83.3568L73.8154 82.9241L74.4644 82.4906C74.5836 82.4035 74.7562 82.2871 74.9822 82.1416C75.0113 82.1228 75.04 82.1353 75.0681 82.1791C75.0962 82.223 75.0957 82.2543 75.0665 82.2731C74.7604 82.4703 74.5854 82.7275 74.5416 83.0447C74.4906 83.3667 74.5738 83.7053 74.7914 84.0607L77.8652 88.8786C78.2265 88.9762 78.5214 89.0185 78.75 89.0055C78.9712 88.9972 79.1693 88.9367 79.3443 88.824C79.3589 88.8146 79.3802 88.8319 79.4083 88.8757C79.4364 88.9195 79.4432 88.9461 79.4286 88.9555L78.8311 89.3249C78.7098 89.3927 78.5508 89.49 78.354 89.6168C78.1571 89.7435 77.9955 89.8528 77.869 89.9446C77.7351 90.0411 77.6464 90.1035 77.6026 90.1317C77.5443 90.1692 77.4912 90.1828 77.4433 90.1723C77.3881 90.1666 77.3129 90.1376 77.2176 90.0854C77.0459 90.0103 76.8811 89.9461 76.7234 89.8928L70.1592 87.6792L72.6108 91.5508C72.8284 91.9061 73.0938 92.1274 73.4072 92.2146C73.7133 92.3065 74.0231 92.2515 74.3366 92.0496C74.3657 92.0308 74.3943 92.0433 74.4225 92.0872C74.4506 92.131 74.45 92.1623 74.4209 92.1811L73.9874 92.4448C73.6865 92.618 73.4376 92.768 73.2408 92.8947C73.0877 92.9933 72.8774 93.1392 72.6098 93.3322L72.081 93.6882Z" fill="#DCCA87"/>
<path d="M46.2684 92.9296C46.2511 92.947 46.2294 92.9557 46.2034 92.9557C46.1774 92.9557 46.1514 92.947 46.1254 92.9296C46.0995 92.9209 46.0908 92.9123 46.0995 92.9036C46.1861 92.3391 46.2294 91.7225 46.2294 91.0538C46.2294 90.9843 46.2424 90.9322 46.2684 90.8975C46.2944 90.8714 46.3464 90.8584 46.4244 90.8584H52.3511C52.3857 90.8584 52.4031 90.8845 52.4031 90.9366C52.4031 90.9887 52.3901 91.0147 52.3641 91.0147C52.1041 91.0147 51.9178 91.0364 51.8052 91.0799C51.6839 91.1233 51.6059 91.2058 51.5713 91.3274C51.5279 91.4489 51.5063 91.6443 51.5063 91.9136V97.9449C51.5063 98.2054 51.5279 98.3965 51.5713 98.518C51.6146 98.6396 51.6969 98.7221 51.8182 98.7655C51.9395 98.8177 52.1215 98.8437 52.3641 98.8437C52.3901 98.8437 52.4074 98.8698 52.4161 98.9219C52.4161 98.974 52.4074 99 52.3901 99H46.7883C46.719 99 46.6843 98.9609 46.6843 98.8828L46.6583 97.1633C46.6583 97.1372 46.6843 97.1242 46.7363 97.1242C46.7796 97.1242 46.8056 97.1329 46.8143 97.1502C46.9616 97.6366 47.2302 98.0187 47.6201 98.2966C48.0014 98.5832 48.4563 98.7265 48.9848 98.7265H49.2318C49.5004 98.7265 49.6953 98.7048 49.8166 98.6613C49.9293 98.6266 50.0029 98.5571 50.0376 98.4529C50.0722 98.3487 50.0939 98.175 50.1026 97.9318V95.2744H48.4779C48.036 95.2744 47.7111 95.3526 47.5031 95.5089C47.2952 95.6652 47.1912 95.9171 47.1912 96.2644C47.1912 96.2992 47.1609 96.3165 47.1002 96.3165C47.0396 96.3165 47.0093 96.2948 47.0093 96.2514L47.0223 95.5349C47.0309 95.4307 47.0352 95.2831 47.0352 95.092C47.0352 94.8141 47.0309 94.6057 47.0223 94.4668L47.0093 93.7633C47.0093 93.7199 47.0352 93.6982 47.0872 93.6982C47.1132 93.6982 47.1392 93.7025 47.1652 93.7112C47.1826 93.7286 47.1912 93.746 47.1912 93.7633C47.1912 94.1368 47.3082 94.419 47.5421 94.6101C47.7674 94.8098 48.088 94.9097 48.5039 94.9097H50.1026V91.9657C50.1026 91.6183 50.0506 91.3925 49.9466 91.2883C49.834 91.1841 49.6044 91.132 49.2578 91.132H48.8938C48.3306 91.132 47.8151 91.2926 47.3472 91.6139C46.8793 91.9439 46.5197 92.3825 46.2684 92.9296Z" fill="#DCCA87"/>
<path d="M31.0219 95.6998C30.9804 95.6876 30.9669 95.6564 30.9815 95.6064C30.9962 95.5564 31.0243 95.5376 31.0659 95.5498C31.3735 95.6403 31.6693 95.6324 31.9534 95.5259C32.2291 95.4169 32.5461 95.121 32.9043 94.6381L37.1229 89.0235C37.16 88.9892 37.2285 88.9867 37.3282 89.016C37.3698 89.0283 37.4089 89.0488 37.4456 89.0777C37.4847 89.0983 37.506 89.1181 37.5094 89.1372L38.6337 96.813C38.6857 97.1904 38.764 97.4623 38.8687 97.6289C38.971 97.8038 39.1385 97.9255 39.3713 97.994C39.3963 98.0014 39.4014 98.03 39.3868 98.08C39.3721 98.13 39.3565 98.1526 39.3399 98.1477L38.6826 97.9407C38.3882 97.8359 38.1703 97.7628 38.0289 97.7212C37.713 97.6282 37.3531 97.5313 36.9491 97.4305L36.3344 97.2632C36.2929 97.251 36.2794 97.2199 36.294 97.1699C36.3087 97.1199 36.3368 97.101 36.3784 97.1132C36.8439 97.2502 37.1146 97.1896 37.1902 96.9313C37.2171 96.8396 37.2205 96.7048 37.2003 96.527L36.3681 90.6749L33.3298 94.8041C33.2095 94.9678 33.1299 95.1164 33.0908 95.2497C33.0152 95.508 33.0522 95.7361 33.2019 95.934C33.3492 96.1403 33.5808 96.2899 33.8967 96.3829C33.93 96.3927 33.9393 96.4226 33.9246 96.4726C33.91 96.5226 33.886 96.5427 33.8528 96.5329L33.2204 96.3332C32.8595 96.2089 32.5294 96.1027 32.2301 96.0146C32.0638 95.9657 31.8535 95.9128 31.5992 95.8561L31.0219 95.6998Z" fill="#DCCA87"/>
<path d="M23.3376 84.3762C23.3136 84.3814 23.2907 84.377 23.2688 84.3629C23.247 84.3488 23.2298 84.3274 23.2173 84.2987C23.2001 84.2773 23.1975 84.2653 23.2095 84.2627C23.5869 83.8348 23.9559 83.3396 24.3166 82.777C24.3541 82.7186 24.3931 82.6818 24.4337 82.6666C24.4697 82.6588 24.5204 82.676 24.586 82.7183L29.5719 85.9297C29.601 85.9485 29.6016 85.9798 29.5735 86.0237C29.5454 86.0675 29.5204 86.0824 29.4985 86.0683C29.2798 85.9274 29.1114 85.8448 28.9932 85.8202C28.8677 85.791 28.7576 85.8182 28.6629 85.9017C28.5609 85.9805 28.4372 86.1331 28.292 86.3596L25.0386 91.4335C24.8981 91.6527 24.8132 91.8251 24.7841 91.9509C24.755 92.0766 24.7797 92.1907 24.8583 92.2929C24.9323 92.4025 25.0713 92.523 25.2754 92.6545C25.2973 92.6685 25.2978 92.6999 25.277 92.7484C25.2489 92.7922 25.2275 92.8094 25.2129 92.8L20.5004 89.7646C20.4421 89.7271 20.4341 89.6754 20.4762 89.6097L21.3819 88.149C21.3959 88.1271 21.4248 88.1302 21.4686 88.1584C21.505 88.1819 21.5222 88.2033 21.5201 88.2226C21.3817 88.7115 21.4015 89.1785 21.5797 89.6236C21.7458 90.0713 22.0512 90.4383 22.4958 90.7247L22.7036 90.8585C22.9295 91.0041 23.1053 91.0915 23.2307 91.1207C23.3442 91.1525 23.4437 91.1339 23.529 91.0651C23.6144 90.9962 23.7263 90.8618 23.8648 90.6619L25.2982 88.4263L23.9315 87.546C23.5598 87.3066 23.2442 87.1962 22.985 87.2151C22.7257 87.2339 22.5024 87.3894 22.315 87.6816C22.2963 87.7109 22.2614 87.709 22.2104 87.6762C22.1593 87.6433 22.1455 87.6086 22.169 87.5721L22.5664 86.9764C22.6299 86.8934 22.7132 86.7716 22.8162 86.6108C22.9661 86.3771 23.0749 86.1994 23.1426 86.0778L23.5111 85.479C23.5345 85.4424 23.5681 85.4383 23.6118 85.4664C23.6337 85.4805 23.6532 85.4983 23.6704 85.5197C23.6756 85.5437 23.6735 85.563 23.6642 85.5776C23.4627 85.8917 23.4089 86.1925 23.5026 86.48C23.5844 86.7701 23.8002 87.0279 24.1501 87.2533L25.495 88.1195L27.083 85.6428C27.2704 85.3506 27.3485 85.1325 27.3172 84.9885C27.2787 84.8398 27.1136 84.6715 26.8221 84.4837L26.5159 84.2865C26.0421 83.9813 25.5217 83.8371 24.9548 83.8539C24.3832 83.878 23.8441 84.0521 23.3376 84.3762Z" fill="#DCCA87"/>
<path d="M14.9958 73.169C14.9788 73.1493 14.9899 73.1224 15.0292 73.0882C15.0628 73.0476 15.091 73.0403 15.1137 73.0666L16.5095 74.6811C16.6457 74.8387 16.6221 75.3418 16.4387 76.1906C16.243 77.0384 15.8531 78.1987 15.2689 79.6713C15.4736 79.8153 15.6724 79.9988 15.8653 80.222C15.8937 80.2548 15.924 80.3031 15.9563 80.367L18.2843 78.3453C18.4799 78.1869 18.6126 78.0487 18.6824 77.9305C18.7401 77.8115 18.7488 77.689 18.7087 77.563C18.6563 77.4362 18.545 77.2743 18.3748 77.0774C18.3521 77.0511 18.3604 77.0209 18.3997 76.9868C18.4333 76.9461 18.4614 76.9389 18.4841 76.9652C18.6771 77.1883 18.8213 77.3618 18.9169 77.4856L19.5369 78.2227L20.1851 78.9525C20.3051 79.0781 20.4616 79.2524 20.6545 79.4756C20.6772 79.5018 20.6718 79.5353 20.6381 79.576C20.5988 79.6101 20.5679 79.6141 20.5452 79.5878C20.3579 79.3712 20.2025 79.2246 20.079 79.1481C19.9489 79.0772 19.8239 79.0651 19.7038 79.1119C19.5715 79.1579 19.4076 79.26 19.212 79.4184L14.6642 83.368C14.4677 83.5386 14.3407 83.6835 14.283 83.8024C14.2197 83.9149 14.2143 84.0345 14.2666 84.1614C14.3125 84.294 14.4233 84.462 14.5992 84.6655C14.6219 84.6917 14.6136 84.7219 14.5743 84.756C14.5351 84.7902 14.5041 84.7941 14.4814 84.7678L14.0401 84.2375C13.8035 83.9374 13.6058 83.6954 13.4469 83.5116C13.254 83.2885 13.0309 83.057 12.7778 82.8172C12.5831 82.6186 12.4574 82.4865 12.4007 82.4208C11.8276 81.7579 11.5072 81.1686 11.4396 80.6527C11.3663 80.1303 11.5228 79.7014 11.9092 79.3658C12.1908 79.1213 12.5448 78.9804 12.9713 78.9433C13.3921 78.8996 13.8243 78.9552 14.2678 79.1101C14.6699 77.8645 14.9601 76.8541 15.1383 76.0789C15.3042 75.3027 15.3789 74.6863 15.3624 74.2295C15.3336 73.7719 15.2114 73.4184 14.9958 73.169ZM15.6813 80.6059C15.6329 80.5101 15.5604 80.4064 15.464 80.2948C15.0895 79.8616 14.7307 79.6389 14.3875 79.6266C14.0388 79.6078 13.6417 79.7917 13.1964 80.1784C12.7315 80.5822 12.4704 80.9698 12.4132 81.3413C12.3438 81.7118 12.4225 82.0284 12.6495 82.2909C12.8027 82.4681 12.9208 82.5782 13.0037 82.621C13.0801 82.6696 13.1722 82.6701 13.28 82.6224C13.3756 82.5738 13.5343 82.459 13.7561 82.2779L15.6813 80.6059Z" fill="#DCCA87"/>
<path d="M2.86213 66.641C2.84413 66.6016 2.85878 66.571 2.90607 66.5493C2.95336 66.5277 2.98601 66.5366 3.004 66.5761C3.12998 66.8526 3.35697 67.0685 3.68496 67.2239C4.00147 67.375 4.4362 67.472 4.98917 67.5148L7.77538 67.6716L10.5301 66.4107C10.7744 66.2989 10.9427 66.198 11.0351 66.108C11.1238 66.0101 11.1591 65.8889 11.1409 65.7445C11.1227 65.6 11.0489 65.3856 10.9193 65.1012C10.9049 65.0696 10.9213 65.043 10.9686 65.0214C11.0159 64.9997 11.0467 65.0047 11.0611 65.0363C11.1871 65.3128 11.2804 65.5279 11.3409 65.6816L11.7556 66.6231L12.2156 67.6012C12.2954 67.7556 12.3966 67.9671 12.5189 68.2357C12.5333 68.2672 12.5169 68.2939 12.4696 68.3155C12.4223 68.3372 12.3915 68.3322 12.3771 68.3006C12.2475 68.0162 12.1324 67.8159 12.0318 67.6996C11.9233 67.587 11.8031 67.5322 11.6712 67.5353C11.5356 67.5305 11.3514 67.5862 11.1186 67.7023L8.53481 68.8993L6.53221 72.0929C6.32698 72.416 6.19696 72.6951 6.14216 72.9302C6.08376 73.1574 6.09415 73.3579 6.17334 73.5317C6.18774 73.5633 6.17129 73.5899 6.124 73.6116C6.08031 73.6411 6.05306 73.6441 6.04227 73.6204L5.77333 72.9988C5.65231 72.6914 5.55941 72.4666 5.49462 72.3244C5.40463 72.1269 5.26177 71.8343 5.06603 71.4465L4.77885 70.8476C4.76805 70.8239 4.77842 70.8048 4.80994 70.7904C4.83359 70.7796 4.86083 70.7767 4.89168 70.7816C4.91104 70.7823 4.92432 70.7906 4.93152 70.8064C5.02511 71.0117 5.10926 71.1546 5.18398 71.235C5.2551 71.3075 5.32613 71.3275 5.39707 71.295C5.468 71.2625 5.54064 71.1815 5.61499 71.052L7.52431 68.03L4.85325 67.9064C4.66322 67.9075 4.50515 67.9369 4.37904 67.9946C4.19776 68.0776 4.08075 68.2075 4.02799 68.3844C3.97164 68.5534 3.99566 68.7525 4.10004 68.9815C4.11444 69.0131 4.09799 69.0398 4.0507 69.0614C4.00341 69.0831 3.97437 69.082 3.96357 69.0583L3.68384 68.4131C3.51963 68.0109 3.38893 67.7031 3.29174 67.4898C3.23055 67.3555 3.15248 67.2051 3.05753 67.0385L2.86213 66.641Z" fill="#DCCA87"/>
<path d="M4.1262 42.113C4.31678 41.3947 4.64078 40.8448 5.09819 40.4632C5.54703 40.0805 6.06305 39.9311 6.64625 40.0151C7.09223 40.0794 7.47622 40.2707 7.79821 40.5891C8.1202 40.9075 8.3551 41.3142 8.50293 41.8093C8.64218 42.3032 8.67049 42.838 8.58787 43.414C8.55335 43.6547 8.50102 43.9279 8.4309 44.2336C8.40506 44.3527 8.3749 44.5019 8.34043 44.6812C8.30719 44.8519 8.27516 45.0447 8.24433 45.2596L8.12402 46.1898C8.10916 46.3544 8.08078 46.5828 8.03885 46.875C8.03638 46.8922 8.00942 46.8971 7.95796 46.8897C7.9065 46.8823 7.882 46.87 7.88447 46.8528C7.92023 46.6035 7.9253 46.4156 7.89968 46.2891C7.86672 46.1527 7.7939 46.0501 7.68123 45.9812C7.56856 45.9124 7.38357 45.8594 7.12627 45.8223L1.16985 44.964C0.92113 44.9281 0.733034 44.9273 0.605563 44.9616C0.470749 44.986 0.372652 45.0596 0.311272 45.1824C0.242549 45.2953 0.190308 45.4764 0.154547 45.7257C0.152081 45.7429 0.125118 45.7478 0.0736587 45.7404C0.0221994 45.733 -0.00229706 45.7207 0.000169188 45.7035L0.111067 45.022C0.182478 44.6462 0.23483 44.3423 0.268124 44.1102C0.302652 43.8695 0.325548 43.6184 0.336812 43.3568C0.340566 43.2696 0.350486 43.1394 0.366572 42.9662C0.382659 42.7931 0.39995 42.642 0.418447 42.5131C0.53436 41.7051 0.765275 41.1023 1.11119 40.7046C1.45834 40.2984 1.90208 40.1343 2.4424 40.2121C2.85408 40.2715 3.20743 40.4628 3.50245 40.786C3.79748 41.1093 4.00539 41.5516 4.1262 42.113ZM0.647998 42.7436C0.612238 42.9929 0.647611 43.1734 0.754119 43.2853C0.860626 43.3972 1.07683 43.4766 1.40274 43.5235L3.84707 43.8758L3.93577 43.349C4.00236 42.8848 3.88629 42.504 3.58756 42.2065C3.28149 41.8992 2.87116 41.7084 2.35657 41.6343C1.8677 41.5638 1.47798 41.6261 1.18738 41.8211C0.88945 42.0063 0.709654 42.3138 0.647998 42.7436ZM8.2734 43.5924C8.36095 42.9821 8.27499 42.5135 8.0155 42.1865C7.75601 41.8596 7.33038 41.6535 6.7386 41.5682C6.0782 41.4731 5.5316 41.561 5.0988 41.832C4.66599 42.1031 4.40088 42.5781 4.30347 43.2572C4.2677 43.5065 4.24422 43.7312 4.23301 43.9314L7.33344 44.3782C7.63362 44.4214 7.85176 44.3958 7.98786 44.3014C8.12397 44.2069 8.21915 43.9706 8.2734 43.5924Z" fill="#DCCA87"/>
<path d="M11.264 33.5398C11.2568 33.5556 11.2295 33.5527 11.1822 33.531C11.1349 33.5094 11.1149 33.4906 11.1221 33.4748C11.2337 33.23 11.2932 33.0471 11.3006 32.9264C11.3115 32.7978 11.2709 32.6885 11.1785 32.5985C11.0862 32.5084 10.9178 32.4075 10.6735 32.2957L5.19961 29.7902C4.97104 29.6856 4.79079 29.6317 4.65885 29.6286C4.52262 29.614 4.40961 29.6529 4.31981 29.7455C4.22213 29.8345 4.12109 29.9935 4.01671 30.2226C4.00951 30.2384 3.98046 30.2394 3.92958 30.2256C3.88228 30.204 3.86404 30.1813 3.87484 30.1576L4.15662 29.5706C4.33076 29.2302 4.46642 28.9534 4.56361 28.7401C4.67159 28.5031 4.80049 28.1993 4.9503 27.8287L5.20304 27.2427C5.21024 27.2269 5.23749 27.2298 5.28478 27.2514C5.33207 27.2731 5.35211 27.2918 5.34491 27.3076C5.23693 27.5446 5.18139 27.7292 5.17828 27.8614C5.17518 27.9937 5.2198 28.1048 5.31215 28.1948C5.4081 28.2769 5.57644 28.3778 5.81717 28.4976L11.2674 30.9923C11.5039 31.1005 11.6862 31.1601 11.8146 31.1711C11.9465 31.1742 12.0613 31.1313 12.159 31.0423C12.2488 30.9498 12.3459 30.789 12.4503 30.5599C12.4575 30.5441 12.4847 30.547 12.532 30.5687C12.5793 30.5903 12.5994 30.609 12.5922 30.6248C12.4806 30.8697 12.3867 31.0654 12.3104 31.2119L11.9044 32.0715L11.5329 32.9182C11.4724 33.0719 11.3828 33.2791 11.264 33.5398Z" fill="#DCCA87"/>
<path d="M16.9346 23.8538C16.9176 23.8735 16.8895 23.8663 16.8502 23.8322C16.8109 23.7981 16.7969 23.7744 16.8083 23.7613C17.0466 23.4857 17.2033 23.2713 17.2783 23.1181C17.3591 22.9584 17.3735 22.8158 17.3215 22.6902C17.263 22.559 17.1355 22.4081 16.9391 22.2374L12.3912 18.2878C12.1677 18.0822 11.9916 17.9809 11.8628 17.984C11.7275 17.9814 11.5804 18.0719 11.4215 18.2557L11.3108 18.3837C11.1179 18.6068 10.9999 18.8893 10.9567 19.231C10.9069 19.567 10.9347 19.9128 11.0399 20.2685C11.1386 20.6185 11.3113 20.9294 11.558 21.201C11.571 21.2124 11.5634 21.2345 11.535 21.2673C11.518 21.287 11.4977 21.3039 11.4742 21.3179C11.4497 21.3196 11.437 21.3144 11.4362 21.3021C11.2157 21.0532 10.6067 20.4381 9.60915 19.4568C9.5895 19.4398 9.59387 19.4148 9.62224 19.382C9.63926 19.3623 9.65672 19.3488 9.67462 19.3413C9.69819 19.3273 9.71652 19.326 9.72962 19.3374C9.86713 19.4568 10.0636 19.3689 10.3189 19.0735C10.7982 18.559 11.3839 17.9013 12.0762 17.1006C12.3882 16.7396 12.7307 16.3303 13.1034 15.8726L13.6894 15.175C13.8766 14.9584 13.9964 14.7866 14.0488 14.6598C14.1012 14.5329 14.0896 14.4136 14.0141 14.3021C14.0058 14.2719 14.0191 14.2432 14.054 14.2161C14.0881 14.1767 14.1153 14.1717 14.1359 14.201C14.407 14.4709 14.7534 14.8063 15.1751 15.207C15.5903 15.602 15.876 15.8617 16.0323 15.9859C16.0519 16.003 16.0447 16.0312 16.0107 16.0706C15.9653 16.1231 15.9295 16.1379 15.9033 16.1152C15.6348 15.882 15.3321 15.7283 14.9951 15.6539C14.6637 15.573 14.3357 15.5811 14.0109 15.6783C13.6918 15.7689 13.4245 15.9389 13.2089 16.1883L13.0982 16.3163C12.9847 16.4475 12.9188 16.5569 12.9005 16.6444C12.8878 16.7254 12.9151 16.8065 12.9824 16.8879C13.0431 16.9636 13.159 17.0815 13.3301 17.2416L17.8668 21.1644C18.0698 21.3407 18.2342 21.4489 18.3599 21.4892C18.4913 21.5228 18.6273 21.4915 18.7678 21.3953C18.9084 21.299 19.1006 21.1098 19.3446 20.8276C19.3617 20.8079 19.3898 20.8151 19.4291 20.8492C19.4684 20.8833 19.4795 20.9102 19.4625 20.9299C19.2526 21.1728 19.0847 21.3602 18.959 21.4924L18.1747 22.3797L17.4525 23.2349C17.3342 23.385 17.1616 23.5913 16.9346 23.8538Z" fill="#DCCA87"/>
<path d="M28.4954 11.3276C28.5007 11.3036 28.5142 11.2846 28.5361 11.2705C28.5579 11.2564 28.5845 11.2496 28.6157 11.2502C28.6423 11.2434 28.6542 11.246 28.6516 11.258C28.8832 11.7798 29.1794 12.322 29.5401 12.8846C29.5776 12.943 29.5947 12.9939 29.5916 13.0372C29.5838 13.0732 29.5471 13.1123 29.4815 13.1546L24.4956 16.3661C24.4665 16.3848 24.4379 16.3723 24.4097 16.3285C24.3816 16.2846 24.3785 16.2557 24.4004 16.2416C24.6191 16.1007 24.7641 15.9815 24.8354 15.884C24.914 15.7817 24.9351 15.67 24.8987 15.549C24.8696 15.4232 24.7824 15.2471 24.6372 15.0206L21.3838 9.94676C21.2432 9.72759 21.122 9.5786 21.0199 9.49979C20.9179 9.42099 20.8041 9.39618 20.6787 9.42539C20.5485 9.44728 20.3814 9.52396 20.1773 9.65543C20.1554 9.66951 20.1268 9.65699 20.0914 9.61785C20.0633 9.57401 20.0565 9.5474 20.0711 9.53801L24.7836 6.5026C24.8419 6.46504 24.8922 6.47913 24.9343 6.54489L25.8837 7.97735C25.8978 7.99926 25.8829 8.02431 25.8392 8.05248C25.8027 8.07595 25.7762 8.08273 25.7595 8.07282C25.3733 7.74351 24.9412 7.56761 24.4633 7.5451C23.988 7.5106 23.528 7.63655 23.0833 7.92295L22.8756 8.05676C22.6496 8.20231 22.4973 8.32622 22.4187 8.42848C22.3427 8.51874 22.3182 8.61709 22.3453 8.72354C22.3723 8.82999 22.4478 8.98785 22.5717 9.1971L24.0051 11.4327L25.3719 10.5523C25.7436 10.3129 25.9748 10.0711 26.0654 9.82688C26.156 9.58269 26.1077 9.31448 25.9203 9.02225C25.9015 8.99302 25.9177 8.96198 25.9687 8.92911C26.0197 8.89625 26.057 8.89808 26.0804 8.93461L26.4559 9.54438C26.5048 9.63674 26.5808 9.76329 26.6839 9.92401C26.8338 10.1578 26.9499 10.3308 27.0321 10.443L27.4225 11.0277C27.4459 11.0642 27.4358 11.0966 27.392 11.1248C27.3702 11.1388 27.3459 11.1493 27.3194 11.1561C27.2954 11.1508 27.2788 11.1409 27.2694 11.1263C27.068 10.8122 26.8173 10.6381 26.5175 10.6042C26.2202 10.5582 25.8966 10.6479 25.5467 10.8733L24.2019 11.7395L25.7899 14.2162C25.9773 14.5084 26.1428 14.6702 26.2865 14.7015C26.4375 14.7281 26.6588 14.6476 26.9503 14.4598L27.2565 14.2626C27.7303 13.9574 28.0773 13.5429 28.2976 13.019C28.5132 12.4878 28.5792 11.9241 28.4954 11.3276Z" fill="#DCCA87"/>
</svg>
